<svg xmlns="http://www.w3.org/2000/svg" width="1200" height="320" viewBox="0 0 1200 320" role="img" aria-label="VALMIR — desenvolvedor com IA no fluxo">
<defs>
<radialGradient id="glow" cx="50%" cy="38%" r="65%">
  <stop offset="0%" stop-color="#1a2416"/><stop offset="60%" stop-color="#0B0E0A"/><stop offset="100%" stop-color="#0B0E0A"/>
</radialGradient>
<pattern id="scan" width="3" height="3" patternUnits="userSpaceOnUse">
  <rect width="3" height="1" fill="#000" opacity="0.30"/>
</pattern>
</defs>
<rect width="1200" height="320" fill="url(#glow)"/>
<rect x="-10" y="232" width="43" height="88" fill="#14201f"/>
<rect x="-2" y="246" width="6" height="10" fill="#4C9C93" opacity="0.5"/>
<rect x="-2" y="272" width="6" height="10" fill="#4C9C93" opacity="0.5"/>
<rect x="-2" y="298" width="6" height="10" fill="#4C9C93" opacity="0.5"/>
<rect x="43" y="136" width="71" height="184" fill="#14201f"/>
<rect x="51" y="150" width="6" height="10" fill="#A6C22E" opacity="0.5"/>
<rect x="51" y="280" width="6" height="10" fill="#A6C22E" opacity="0.5"/>
<rect x="124" y="152" width="36" height="168" fill="#14201f"/>
<rect x="132" y="270" width="6" height="10" fill="#4C9C93" opacity="0.5"/>
<rect x="170" y="232" width="85" height="88" fill="#14201f"/>
<rect x="265" y="248" width="57" height="72" fill="#14201f"/>
<rect x="332" y="264" width="29" height="56" fill="#14201f"/>
<rect x="340" y="278" width="6" height="10" fill="#A6C22E" opacity="0.5"/>
<rect x="340" y="304" width="6" height="10" fill="#A6C22E" opacity="0.5"/>
<rect x="371" y="232" width="78" height="88" fill="#14201f"/>
<rect x="459" y="248" width="50" height="72" fill="#14201f"/>
<rect x="519" y="216" width="64" height="104" fill="#14201f"/>
<rect x="527" y="230" width="6" height="10" fill="#4C9C93" opacity="0.5"/>
<rect x="593" y="232" width="43" height="88" fill="#14201f"/>
<rect x="646" y="248" width="71" height="72" fill="#14201f"/>
<rect x="654" y="262" width="6" height="10" fill="#4C9C93" opacity="0.5"/>
<rect x="654" y="288" width="6" height="10" fill="#4C9C93" opacity="0.5"/>
<rect x="727" y="264" width="85" height="56" fill="#14201f"/>
<rect x="822" y="168" width="36" height="152" fill="#14201f"/>
<rect x="830" y="260" width="6" height="10" fill="#4C9C93" opacity="0.5"/>
<rect x="868" y="200" width="57" height="120" fill="#14201f"/>
<rect x="876" y="240" width="6" height="10" fill="#A6C22E" opacity="0.5"/>
<rect x="935" y="216" width="78" height="104" fill="#14201f"/>
<rect x="943" y="230" width="6" height="10" fill="#4C9C93" opacity="0.5"/>
<rect x="1023" y="168" width="29" height="152" fill="#14201f"/>
<rect x="1031" y="182" width="6" height="10" fill="#A6C22E" opacity="0.5"/>
<rect x="1031" y="208" width="6" height="10" fill="#A6C22E" opacity="0.5"/>
<rect x="1031" y="234" width="6" height="10" fill="#A6C22E" opacity="0.5"/>
<rect x="1031" y="260" width="6" height="10" fill="#A6C22E" opacity="0.5"/>
<rect x="1031" y="286" width="6" height="10" fill="#A6C22E" opacity="0.5"/>
<rect x="1062" y="200" width="50" height="120" fill="#14201f"/>
<rect x="1070" y="240" width="6" height="10" fill="#4C9C93" opacity="0.5"/>
<rect x="1122" y="216" width="71" height="104" fill="#14201f"/>
<rect x="1130" y="230" width="6" height="10" fill="#A6C22E" opacity="0.5"/>
<rect x="1203" y="184" width="43" height="136" fill="#14201f"/>
<rect x="1211" y="250" width="6" height="10" fill="#4C9C93" opacity="0.5"/>
<rect x="0" y="0" width="1200" height="320" fill="#0e1a1a" opacity="0.18"/>
<rect x="0" y="116" width="1200" height="12" fill="#4C9C93" opacity="0.10"/>
<rect x="0" y="152" width="1200" height="6" fill="#D5451F" opacity="0.12"/>
<rect x="320" y="140" width="120" height="12" fill="#A6C22E" opacity="0.18"/>
<rect x="750" y="80" width="140" height="6" fill="#DAD7C6" opacity="0.12"/>
<!-- glitch chroma -->
<rect x="356" y="94" width="12" height="12" fill="#4C9C93" opacity="0.55"/>
<rect x="404" y="94" width="12" height="12" fill="#4C9C93" opacity="0.55"/>
<rect x="356" y="106" width="12" height="12" fill="#4C9C93" opacity="0.55"/>
<rect x="404" y="106" width="12" height="12" fill="#4C9C93" opacity="0.55"/>
<rect x="356" y="118" width="12" height="12" fill="#4C9C93" opacity="0.55"/>
<rect x="404" y="118" width="12" height="12" fill="#4C9C93" opacity="0.55"/>
<rect x="356" y="130" width="12" height="12" fill="#4C9C93" opacity="0.55"/>
<rect x="404" y="130" width="12" height="12" fill="#4C9C93" opacity="0.55"/>
<rect x="368" y="142" width="12" height="12" fill="#4C9C93" opacity="0.55"/>
<rect x="392" y="142" width="12" height="12" fill="#4C9C93" opacity="0.55"/>
<rect x="368" y="154" width="12" height="12" fill="#4C9C93" opacity="0.55"/>
<rect x="392" y="154" width="12" height="12" fill="#4C9C93" opacity="0.55"/>
<rect x="380" y="166" width="12" height="12" fill="#4C9C93" opacity="0.55"/>
<rect x="452" y="94" width="12" height="12" fill="#4C9C93" opacity="0.55"/>
<rect x="464" y="94" width="12" height="12" fill="#4C9C93" opacity="0.55"/>
<rect x="476" y="94" width="12" height="12" fill="#4C9C93" opacity="0.55"/>
<rect x="440" y="106" width="12" height="12" fill="#4C9C93" opacity="0.55"/>
<rect x="488" y="106" width="12" height="12" fill="#4C9C93" opacity="0.55"/>
<rect x="440" y="118" width="12" height="12" fill="#4C9C93" opacity="0.55"/>
<rect x="488" y="118" width="12" height="12" fill="#4C9C93" opacity="0.55"/>
<rect x="440" y="130" width="12" height="12" fill="#4C9C93" opacity="0.55"/>
<rect x="452" y="130" width="12" height="12" fill="#4C9C93" opacity="0.55"/>
<rect x="464" y="130" width="12" height="12" fill="#4C9C93" opacity="0.55"/>
<rect x="476" y="130" width="12" height="12" fill="#4C9C93" opacity="0.55"/>
<rect x="488" y="130" width="12" height="12" fill="#4C9C93" opacity="0.55"/>
<rect x="440" y="142" width="12" height="12" fill="#4C9C93" opacity="0.55"/>
<rect x="488" y="142" width="12" height="12" fill="#4C9C93" opacity="0.55"/>
<rect x="440" y="154" width="12" height="12" fill="#4C9C93" opacity="0.55"/>
<rect x="488" y="154" width="12" height="12" fill="#4C9C93" opacity="0.55"/>
<rect x="440" y="166" width="12" height="12" fill="#4C9C93" opacity="0.55"/>
<rect x="488" y="166" width="12" height="12" fill="#4C9C93" opacity="0.55"/>
<rect x="524" y="94" width="12" height="12" fill="#4C9C93" opacity="0.55"/>
<rect x="524" y="106" width="12" height="12" fill="#4C9C93" opacity="0.55"/>
<rect x="524" y="118" width="12" height="12" fill="#4C9C93" opacity="0.55"/>
<rect x="524" y="130" width="12" height="12" fill="#4C9C93" opacity="0.55"/>
<rect x="524" y="142" width="12" height="12" fill="#4C9C93" opacity="0.55"/>
<rect x="524" y="154" width="12" height="12" fill="#4C9C93" opacity="0.55"/>
<rect x="524" y="166" width="12" height="12" fill="#4C9C93" opacity="0.55"/>
<rect x="536" y="166" width="12" height="12" fill="#4C9C93" opacity="0.55"/>
<rect x="548" y="166" width="12" height="12" fill="#4C9C93" opacity="0.55"/>
<rect x="560" y="166" width="12" height="12" fill="#4C9C93" opacity="0.55"/>
<rect x="572" y="166" width="12" height="12" fill="#4C9C93" opacity="0.55"/>
<rect x="608" y="94" width="12" height="12" fill="#4C9C93" opacity="0.55"/>
<rect x="656" y="94" width="12" height="12" fill="#4C9C93" opacity="0.55"/>
<rect x="608" y="106" width="12" height="12" fill="#4C9C93" opacity="0.55"/>
<rect x="620" y="106" width="12" height="12" fill="#4C9C93" opacity="0.55"/>
<rect x="644" y="106" width="12" height="12" fill="#4C9C93" opacity="0.55"/>
<rect x="656" y="106" width="12" height="12" fill="#4C9C93" opacity="0.55"/>
<rect x="608" y="118" width="12" height="12" fill="#4C9C93" opacity="0.55"/>
<rect x="632" y="118" width="12" height="12" fill="#4C9C93" opacity="0.55"/>
<rect x="656" y="118" width="12" height="12" fill="#4C9C93" opacity="0.55"/>
<rect x="608" y="130" width="12" height="12" fill="#4C9C93" opacity="0.55"/>
<rect x="632" y="130" width="12" height="12" fill="#4C9C93" opacity="0.55"/>
<rect x="656" y="130" width="12" height="12" fill="#4C9C93" opacity="0.55"/>
<rect x="608" y="142" width="12" height="12" fill="#4C9C93" opacity="0.55"/>
<rect x="656" y="142" width="12" height="12" fill="#4C9C93" opacity="0.55"/>
<rect x="608" y="154" width="12" height="12" fill="#4C9C93" opacity="0.55"/>
<rect x="656" y="154" width="12" height="12" fill="#4C9C93" opacity="0.55"/>
<rect x="608" y="166" width="12" height="12" fill="#4C9C93" opacity="0.55"/>
<rect x="656" y="166" width="12" height="12" fill="#4C9C93" opacity="0.55"/>
<rect x="692" y="94" width="12" height="12" fill="#4C9C93" opacity="0.55"/>
<rect x="704" y="94" width="12" height="12" fill="#4C9C93" opacity="0.55"/>
<rect x="716" y="94" width="12" height="12" fill="#4C9C93" opacity="0.55"/>
<rect x="728" y="94" width="12" height="12" fill="#4C9C93" opacity="0.55"/>
<rect x="740" y="94" width="12" height="12" fill="#4C9C93" opacity="0.55"/>
<rect x="716" y="106" width="12" height="12" fill="#4C9C93" opacity="0.55"/>
<rect x="716" y="118" width="12" height="12" fill="#4C9C93" opacity="0.55"/>
<rect x="716" y="130" width="12" height="12" fill="#4C9C93" opacity="0.55"/>
<rect x="716" y="142" width="12" height="12" fill="#4C9C93" opacity="0.55"/>
<rect x="716" y="154" width="12" height="12" fill="#4C9C93" opacity="0.55"/>
<rect x="692" y="166" width="12" height="12" fill="#4C9C93" opacity="0.55"/>
<rect x="704" y="166" width="12" height="12" fill="#4C9C93" opacity="0.55"/>
<rect x="716" y="166" width="12" height="12" fill="#4C9C93" opacity="0.55"/>
<rect x="728" y="166" width="12" height="12" fill="#4C9C93" opacity="0.55"/>
<rect x="740" y="166" width="12" height="12" fill="#4C9C93" opacity="0.55"/>
<rect x="776" y="94" width="12" height="12" fill="#4C9C93" opacity="0.55"/>
<rect x="788" y="94" width="12" height="12" fill="#4C9C93" opacity="0.55"/>
<rect x="800" y="94" width="12" height="12" fill="#4C9C93" opacity="0.55"/>
<rect x="812" y="94" width="12" height="12" fill="#4C9C93" opacity="0.55"/>
<rect x="776" y="106" width="12" height="12" fill="#4C9C93" opacity="0.55"/>
<rect x="824" y="106" width="12" height="12" fill="#4C9C93" opacity="0.55"/>
<rect x="776" y="118" width="12" height="12" fill="#4C9C93" opacity="0.55"/>
<rect x="824" y="118" width="12" height="12" fill="#4C9C93" opacity="0.55"/>
<rect x="776" y="130" width="12" height="12" fill="#4C9C93" opacity="0.55"/>
<rect x="788" y="130" width="12" height="12" fill="#4C9C93" opacity="0.55"/>
<rect x="800" y="130" width="12" height="12" fill="#4C9C93" opacity="0.55"/>
<rect x="812" y="130" width="12" height="12" fill="#4C9C93" opacity="0.55"/>
<rect x="776" y="142" width="12" height="12" fill="#4C9C93" opacity="0.55"/>
<rect x="800" y="142" width="12" height="12" fill="#4C9C93" opacity="0.55"/>
<rect x="776" y="154" width="12" height="12" fill="#4C9C93" opacity="0.55"/>
<rect x="812" y="154" width="12" height="12" fill="#4C9C93" opacity="0.55"/>
<rect x="776" y="166" width="12" height="12" fill="#4C9C93" opacity="0.55"/>
<rect x="824" y="166" width="12" height="12" fill="#4C9C93" opacity="0.55"/>
<rect x="364" y="90" width="12" height="12" fill="#D5451F" opacity="0.5"/>
<rect x="412" y="90" width="12" height="12" fill="#D5451F" opacity="0.5"/>
<rect x="364" y="102" width="12" height="12" fill="#D5451F" opacity="0.5"/>
<rect x="412" y="102" width="12" height="12" fill="#D5451F" opacity="0.5"/>
<rect x="364" y="114" width="12" height="12" fill="#D5451F" opacity="0.5"/>
<rect x="412" y="114" width="12" height="12" fill="#D5451F" opacity="0.5"/>
<rect x="364" y="126" width="12" height="12" fill="#D5451F" opacity="0.5"/>
<rect x="412" y="126" width="12" height="12" fill="#D5451F" opacity="0.5"/>
<rect x="376" y="138" width="12" height="12" fill="#D5451F" opacity="0.5"/>
<rect x="400" y="138" width="12" height="12" fill="#D5451F" opacity="0.5"/>
<rect x="376" y="150" width="12" height="12" fill="#D5451F" opacity="0.5"/>
<rect x="400" y="150" width="12" height="12" fill="#D5451F" opacity="0.5"/>
<rect x="388" y="162" width="12" height="12" fill="#D5451F" opacity="0.5"/>
<rect x="460" y="90" width="12" height="12" fill="#D5451F" opacity="0.5"/>
<rect x="472" y="90" width="12" height="12" fill="#D5451F" opacity="0.5"/>
<rect x="484" y="90" width="12" height="12" fill="#D5451F" opacity="0.5"/>
<rect x="448" y="102" width="12" height="12" fill="#D5451F" opacity="0.5"/>
<rect x="496" y="102" width="12" height="12" fill="#D5451F" opacity="0.5"/>
<rect x="448" y="114" width="12" height="12" fill="#D5451F" opacity="0.5"/>
<rect x="496" y="114" width="12" height="12" fill="#D5451F" opacity="0.5"/>
<rect x="448" y="126" width="12" height="12" fill="#D5451F" opacity="0.5"/>
<rect x="460" y="126" width="12" height="12" fill="#D5451F" opacity="0.5"/>
<rect x="472" y="126" width="12" height="12" fill="#D5451F" opacity="0.5"/>
<rect x="484" y="126" width="12" height="12" fill="#D5451F" opacity="0.5"/>
<rect x="496" y="126" width="12" height="12" fill="#D5451F" opacity="0.5"/>
<rect x="448" y="138" width="12" height="12" fill="#D5451F" opacity="0.5"/>
<rect x="496" y="138" width="12" height="12" fill="#D5451F" opacity="0.5"/>
<rect x="448" y="150" width="12" height="12" fill="#D5451F" opacity="0.5"/>
<rect x="496" y="150" width="12" height="12" fill="#D5451F" opacity="0.5"/>
<rect x="448" y="162" width="12" height="12" fill="#D5451F" opacity="0.5"/>
<rect x="496" y="162" width="12" height="12" fill="#D5451F" opacity="0.5"/>
<rect x="532" y="90" width="12" height="12" fill="#D5451F" opacity="0.5"/>
<rect x="532" y="102" width="12" height="12" fill="#D5451F" opacity="0.5"/>
<rect x="532" y="114" width="12" height="12" fill="#D5451F" opacity="0.5"/>
<rect x="532" y="126" width="12" height="12" fill="#D5451F" opacity="0.5"/>
<rect x="532" y="138" width="12" height="12" fill="#D5451F" opacity="0.5"/>
<rect x="532" y="150" width="12" height="12" fill="#D5451F" opacity="0.5"/>
<rect x="532" y="162" width="12" height="12" fill="#D5451F" opacity="0.5"/>
<rect x="544" y="162" width="12" height="12" fill="#D5451F" opacity="0.5"/>
<rect x="556" y="162" width="12" height="12" fill="#D5451F" opacity="0.5"/>
<rect x="568" y="162" width="12" height="12" fill="#D5451F" opacity="0.5"/>
<rect x="580" y="162" width="12" height="12" fill="#D5451F" opacity="0.5"/>
<rect x="616" y="90" width="12" height="12" fill="#D5451F" opacity="0.5"/>
<rect x="664" y="90" width="12" height="12" fill="#D5451F" opacity="0.5"/>
<rect x="616" y="102" width="12" height="12" fill="#D5451F" opacity="0.5"/>
<rect x="628" y="102" width="12" height="12" fill="#D5451F" opacity="0.5"/>
<rect x="652" y="102" width="12" height="12" fill="#D5451F" opacity="0.5"/>
<rect x="664" y="102" width="12" height="12" fill="#D5451F" opacity="0.5"/>
<rect x="616" y="114" width="12" height="12" fill="#D5451F" opacity="0.5"/>
<rect x="640" y="114" width="12" height="12" fill="#D5451F" opacity="0.5"/>
<rect x="664" y="114" width="12" height="12" fill="#D5451F" opacity="0.5"/>
<rect x="616" y="126" width="12" height="12" fill="#D5451F" opacity="0.5"/>
<rect x="640" y="126" width="12" height="12" fill="#D5451F" opacity="0.5"/>
<rect x="664" y="126" width="12" height="12" fill="#D5451F" opacity="0.5"/>
<rect x="616" y="138" width="12" height="12" fill="#D5451F" opacity="0.5"/>
<rect x="664" y="138" width="12" height="12" fill="#D5451F" opacity="0.5"/>
<rect x="616" y="150" width="12" height="12" fill="#D5451F" opacity="0.5"/>
<rect x="664" y="150" width="12" height="12" fill="#D5451F" opacity="0.5"/>
<rect x="616" y="162" width="12" height="12" fill="#D5451F" opacity="0.5"/>
<rect x="664" y="162" width="12" height="12" fill="#D5451F" opacity="0.5"/>
<rect x="700" y="90" width="12" height="12" fill="#D5451F" opacity="0.5"/>
<rect x="712" y="90" width="12" height="12" fill="#D5451F" opacity="0.5"/>
<rect x="724" y="90" width="12" height="12" fill="#D5451F" opacity="0.5"/>
<rect x="736" y="90" width="12" height="12" fill="#D5451F" opacity="0.5"/>
<rect x="748" y="90" width="12" height="12" fill="#D5451F" opacity="0.5"/>
<rect x="724" y="102" width="12" height="12" fill="#D5451F" opacity="0.5"/>
<rect x="724" y="114" width="12" height="12" fill="#D5451F" opacity="0.5"/>
<rect x="724" y="126" width="12" height="12" fill="#D5451F" opacity="0.5"/>
<rect x="724" y="138" width="12" height="12" fill="#D5451F" opacity="0.5"/>
<rect x="724" y="150" width="12" height="12" fill="#D5451F" opacity="0.5"/>
<rect x="700" y="162" width="12" height="12" fill="#D5451F" opacity="0.5"/>
<rect x="712" y="162" width="12" height="12" fill="#D5451F" opacity="0.5"/>
<rect x="724" y="162" width="12" height="12" fill="#D5451F" opacity="0.5"/>
<rect x="736" y="162" width="12" height="12" fill="#D5451F" opacity="0.5"/>
<rect x="748" y="162" width="12" height="12" fill="#D5451F" opacity="0.5"/>
<rect x="784" y="90" width="12" height="12" fill="#D5451F" opacity="0.5"/>
<rect x="796" y="90" width="12" height="12" fill="#D5451F" opacity="0.5"/>
<rect x="808" y="90" width="12" height="12" fill="#D5451F" opacity="0.5"/>
<rect x="820" y="90" width="12" height="12" fill="#D5451F" opacity="0.5"/>
<rect x="784" y="102" width="12" height="12" fill="#D5451F" opacity="0.5"/>
<rect x="832" y="102" width="12" height="12" fill="#D5451F" opacity="0.5"/>
<rect x="784" y="114" width="12" height="12" fill="#D5451F" opacity="0.5"/>
<rect x="832" y="114" width="12" height="12" fill="#D5451F" opacity="0.5"/>
<rect x="784" y="126" width="12" height="12" fill="#D5451F" opacity="0.5"/>
<rect x="796" y="126" width="12" height="12" fill="#D5451F" opacity="0.5"/>
<rect x="808" y="126" width="12" height="12" fill="#D5451F" opacity="0.5"/>
<rect x="820" y="126" width="12" height="12" fill="#D5451F" opacity="0.5"/>
<rect x="784" y="138" width="12" height="12" fill="#D5451F" opacity="0.5"/>
<rect x="808" y="138" width="12" height="12" fill="#D5451F" opacity="0.5"/>
<rect x="784" y="150" width="12" height="12" fill="#D5451F" opacity="0.5"/>
<rect x="820" y="150" width="12" height="12" fill="#D5451F" opacity="0.5"/>
<rect x="784" y="162" width="12" height="12" fill="#D5451F" opacity="0.5"/>
<rect x="832" y="162" width="12" height="12" fill="#D5451F" opacity="0.5"/>
<rect x="360" y="92" width="12" height="12" fill="#A6C22E" opacity="1"/>
<rect x="408" y="92" width="12" height="12" fill="#A6C22E" opacity="1"/>
<rect x="360" y="104" width="12" height="12" fill="#A6C22E" opacity="1"/>
<rect x="408" y="104" width="12" height="12" fill="#A6C22E" opacity="1"/>
<rect x="360" y="116" width="12" height="12" fill="#A6C22E" opacity="1"/>
<rect x="408" y="116" width="12" height="12" fill="#A6C22E" opacity="1"/>
<rect x="360" y="128" width="12" height="12" fill="#A6C22E" opacity="1"/>
<rect x="408" y="128" width="12" height="12" fill="#A6C22E" opacity="1"/>
<rect x="372" y="140" width="12" height="12" fill="#A6C22E" opacity="1"/>
<rect x="396" y="140" width="12" height="12" fill="#A6C22E" opacity="1"/>
<rect x="372" y="152" width="12" height="12" fill="#A6C22E" opacity="1"/>
<rect x="396" y="152" width="12" height="12" fill="#A6C22E" opacity="1"/>
<rect x="384" y="164" width="12" height="12" fill="#A6C22E" opacity="1"/>
<rect x="456" y="92" width="12" height="12" fill="#A6C22E" opacity="1"/>
<rect x="468" y="92" width="12" height="12" fill="#A6C22E" opacity="1"/>
<rect x="480" y="92" width="12" height="12" fill="#A6C22E" opacity="1"/>
<rect x="444" y="104" width="12" height="12" fill="#A6C22E" opacity="1"/>
<rect x="492" y="104" width="12" height="12" fill="#A6C22E" opacity="1"/>
<rect x="444" y="116" width="12" height="12" fill="#A6C22E" opacity="1"/>
<rect x="492" y="116" width="12" height="12" fill="#A6C22E" opacity="1"/>
<rect x="444" y="128" width="12" height="12" fill="#A6C22E" opacity="1"/>
<rect x="456" y="128" width="12" height="12" fill="#A6C22E" opacity="1"/>
<rect x="468" y="128" width="12" height="12" fill="#A6C22E" opacity="1"/>
<rect x="480" y="128" width="12" height="12" fill="#A6C22E" opacity="1"/>
<rect x="492" y="128" width="12" height="12" fill="#A6C22E" opacity="1"/>
<rect x="444" y="140" width="12" height="12" fill="#A6C22E" opacity="1"/>
<rect x="492" y="140" width="12" height="12" fill="#A6C22E" opacity="1"/>
<rect x="444" y="152" width="12" height="12" fill="#A6C22E" opacity="1"/>
<rect x="492" y="152" width="12" height="12" fill="#A6C22E" opacity="1"/>
<rect x="444" y="164" width="12" height="12" fill="#A6C22E" opacity="1"/>
<rect x="492" y="164" width="12" height="12" fill="#A6C22E" opacity="1"/>
<rect x="528" y="92" width="12" height="12" fill="#A6C22E" opacity="1"/>
<rect x="528" y="104" width="12" height="12" fill="#A6C22E" opacity="1"/>
<rect x="528" y="116" width="12" height="12" fill="#A6C22E" opacity="1"/>
<rect x="528" y="128" width="12" height="12" fill="#A6C22E" opacity="1"/>
<rect x="528" y="140" width="12" height="12" fill="#A6C22E" opacity="1"/>
<rect x="528" y="152" width="12" height="12" fill="#A6C22E" opacity="1"/>
<rect x="528" y="164" width="12" height="12" fill="#A6C22E" opacity="1"/>
<rect x="540" y="164" width="12" height="12" fill="#A6C22E" opacity="1"/>
<rect x="552" y="164" width="12" height="12" fill="#A6C22E" opacity="1"/>
<rect x="564" y="164" width="12" height="12" fill="#A6C22E" opacity="1"/>
<rect x="576" y="164" width="12" height="12" fill="#A6C22E" opacity="1"/>
<rect x="612" y="92" width="12" height="12" fill="#A6C22E" opacity="1"/>
<rect x="660" y="92" width="12" height="12" fill="#A6C22E" opacity="1"/>
<rect x="612" y="104" width="12" height="12" fill="#A6C22E" opacity="1"/>
<rect x="624" y="104" width="12" height="12" fill="#A6C22E" opacity="1"/>
<rect x="648" y="104" width="12" height="12" fill="#A6C22E" opacity="1"/>
<rect x="660" y="104" width="12" height="12" fill="#A6C22E" opacity="1"/>
<rect x="612" y="116" width="12" height="12" fill="#A6C22E" opacity="1"/>
<rect x="636" y="116" width="12" height="12" fill="#A6C22E" opacity="1"/>
<rect x="660" y="116" width="12" height="12" fill="#A6C22E" opacity="1"/>
<rect x="612" y="128" width="12" height="12" fill="#A6C22E" opacity="1"/>
<rect x="636" y="128" width="12" height="12" fill="#A6C22E" opacity="1"/>
<rect x="660" y="128" width="12" height="12" fill="#A6C22E" opacity="1"/>
<rect x="612" y="140" width="12" height="12" fill="#A6C22E" opacity="1"/>
<rect x="660" y="140" width="12" height="12" fill="#A6C22E" opacity="1"/>
<rect x="612" y="152" width="12" height="12" fill="#A6C22E" opacity="1"/>
<rect x="660" y="152" width="12" height="12" fill="#A6C22E" opacity="1"/>
<rect x="612" y="164" width="12" height="12" fill="#A6C22E" opacity="1"/>
<rect x="660" y="164" width="12" height="12" fill="#A6C22E" opacity="1"/>
<rect x="696" y="92" width="12" height="12" fill="#A6C22E" opacity="1"/>
<rect x="708" y="92" width="12" height="12" fill="#A6C22E" opacity="1"/>
<rect x="720" y="92" width="12" height="12" fill="#A6C22E" opacity="1"/>
<rect x="732" y="92" width="12" height="12" fill="#A6C22E" opacity="1"/>
<rect x="744" y="92" width="12" height="12" fill="#A6C22E" opacity="1"/>
<rect x="720" y="104" width="12" height="12" fill="#A6C22E" opacity="1"/>
<rect x="720" y="116" width="12" height="12" fill="#A6C22E" opacity="1"/>
<rect x="720" y="128" width="12" height="12" fill="#A6C22E" opacity="1"/>
<rect x="720" y="140" width="12" height="12" fill="#A6C22E" opacity="1"/>
<rect x="720" y="152" width="12" height="12" fill="#A6C22E" opacity="1"/>
<rect x="696" y="164" width="12" height="12" fill="#A6C22E" opacity="1"/>
<rect x="708" y="164" width="12" height="12" fill="#A6C22E" opacity="1"/>
<rect x="720" y="164" width="12" height="12" fill="#A6C22E" opacity="1"/>
<rect x="732" y="164" width="12" height="12" fill="#A6C22E" opacity="1"/>
<rect x="744" y="164" width="12" height="12" fill="#A6C22E" opacity="1"/>
<rect x="780" y="92" width="12" height="12" fill="#A6C22E" opacity="1"/>
<rect x="792" y="92" width="12" height="12" fill="#A6C22E" opacity="1"/>
<rect x="804" y="92" width="12" height="12" fill="#A6C22E" opacity="1"/>
<rect x="816" y="92" width="12" height="12" fill="#A6C22E" opacity="1"/>
<rect x="780" y="104" width="12" height="12" fill="#A6C22E" opacity="1"/>
<rect x="828" y="104" width="12" height="12" fill="#A6C22E" opacity="1"/>
<rect x="780" y="116" width="12" height="12" fill="#A6C22E" opacity="1"/>
<rect x="828" y="116" width="12" height="12" fill="#A6C22E" opacity="1"/>
<rect x="780" y="128" width="12" height="12" fill="#A6C22E" opacity="1"/>
<rect x="792" y="128" width="12" height="12" fill="#A6C22E" opacity="1"/>
<rect x="804" y="128" width="12" height="12" fill="#A6C22E" opacity="1"/>
<rect x="816" y="128" width="12" height="12" fill="#A6C22E" opacity="1"/>
<rect x="780" y="140" width="12" height="12" fill="#A6C22E" opacity="1"/>
<rect x="804" y="140" width="12" height="12" fill="#A6C22E" opacity="1"/>
<rect x="780" y="152" width="12" height="12" fill="#A6C22E" opacity="1"/>
<rect x="816" y="152" width="12" height="12" fill="#A6C22E" opacity="1"/>
<rect x="780" y="164" width="12" height="12" fill="#A6C22E" opacity="1"/>
<rect x="828" y="164" width="12" height="12" fill="#A6C22E" opacity="1"/>
<rect x="360" y="128" width="480" height="3" fill="#DAD7C6" opacity="0.35"/>
<text x="600" y="216" text-anchor="middle" fill="#DAD7C6" opacity="0.85"
 font-family="'Courier New',ui-monospace,monospace" font-size="20" letter-spacing="3">DESENVOLVEDOR COM IA NO FLUXO</text>
<rect width="1200" height="320" fill="url(#scan)"/>
<rect width="1200" height="320" fill="none" stroke="#A6C22E" stroke-width="2" opacity="0.5"/>
</svg>